<svg width="43" height="34" viewBox="0 0 43 34" fill="none" xmlns="http://www.w3.org/2000/svg">
<path d="M18.4327 27.1982C18.4135 27.5446 18.6723 27.8428 19.0174 27.8621C19.027 27.8621 19.0461 27.8621 19.0557 27.8621C19.3816 27.8621 19.6596 27.6023 19.6788 27.2752C19.9184 23.6481 21.8738 22.5129 21.9601 22.4648C22.2668 22.3012 22.3819 21.926 22.2189 21.6181C22.1422 21.4738 22.008 21.3584 21.8547 21.3103C21.6917 21.2622 21.5288 21.2718 21.3754 21.3488C21.27 21.4065 18.7202 22.7919 18.4327 27.1982ZM33.1558 5.93619C32.3123 5.93619 31.4688 6.04202 30.654 6.2633L30.4911 6.31141V0.731327C30.4911 0.336873 30.1748 0.0193855 29.7818 0.0193855H0.709318C0.316317 0.000143839 0 0.317631 0 0.712085V7.90846C0 8.30292 0.316317 8.6204 0.709318 8.6204C1.10232 8.6204 1.41864 8.30292 1.41864 7.90846V1.43365H29.0533V28.0641C29.0533 30.5463 27.0499 32.5666 24.5673 32.5666H14.6656C14.2726 32.5666 13.9563 32.8841 13.9563 33.2786C13.9563 33.673 14.2726 33.9905 14.6656 33.9905H24.5865C27.8455 33.9905 30.4911 31.3352 30.4911 28.0641V25.3125L30.654 25.3606C31.4688 25.5723 32.3027 25.6781 33.1558 25.6781C38.5811 25.6781 42.9904 21.2525 42.9904 15.8072C42.9904 10.3618 38.5811 5.93619 33.1558 5.93619ZM33.1558 24.2542C32.274 24.2542 31.4113 24.1196 30.5774 23.8502L30.4815 23.8213V21.3391L30.6636 21.4257C31.44 21.7721 32.3027 21.9549 33.1462 21.9549C34.9099 21.9549 36.5874 21.1852 37.7568 19.8575C38.0156 19.5593 37.9869 19.1071 37.6897 18.8473C37.3926 18.5876 36.942 18.6164 36.6832 18.9147C35.7918 19.9345 34.5074 20.5214 33.1462 20.5214C32.2069 20.5214 31.3058 20.2424 30.539 19.7228L30.4815 19.6844V11.93L30.539 11.8915C31.3058 11.372 32.2069 11.093 33.1462 11.093C34.4978 11.093 35.7918 11.6798 36.6832 12.6996C36.8078 12.8439 36.9804 12.9305 37.1721 12.9402C37.3638 12.9498 37.5459 12.8921 37.6897 12.767C37.8335 12.6419 37.9198 12.4687 37.9293 12.2763C37.9389 12.0839 37.8814 11.9011 37.7568 11.7568C36.597 10.4195 34.9099 9.65945 33.1462 9.65945C32.3027 9.65945 31.44 9.84225 30.6636 10.1886L30.4815 10.2752V7.80263L30.5774 7.77377C31.4017 7.50439 32.274 7.3697 33.1558 7.3697C37.7951 7.3697 41.5718 11.1603 41.5718 15.8168C41.5718 20.4636 37.7951 24.2542 33.1558 24.2542ZM1.42822 28.0641V15.1433C1.42822 14.7489 1.1119 14.4314 0.718903 14.4314C0.325903 14.4314 0.00958538 14.7489 0.00958538 15.1433V28.0641C0.00958538 31.3352 2.65515 33.9905 5.91418 33.9905H7.48618C7.87918 33.9905 8.1955 33.673 8.1955 33.2786C8.1955 32.8841 7.87918 32.5666 7.48618 32.5666H5.90459C3.43157 32.5666 1.42822 30.5559 1.42822 28.0641ZM19.9951 10.7274L17.7809 10.4003C17.6946 10.3906 17.6275 10.3329 17.5892 10.2559L16.6019 8.24519C16.3431 7.72567 15.8255 7.39856 15.2503 7.39856C14.6752 7.39856 14.1576 7.72567 13.8988 8.24519L12.9115 10.2559C12.8732 10.3329 12.7965 10.381 12.7198 10.4003L10.5056 10.7274C9.93045 10.814 9.47035 11.2084 9.28823 11.7568C9.10611 12.3052 9.25947 12.9017 9.67165 13.3057L11.2724 14.8739C11.3299 14.9317 11.3587 15.0183 11.3491 15.1048L10.9657 17.3176C10.8698 17.8853 11.0999 18.4529 11.5696 18.7992C12.0392 19.136 12.6431 19.1841 13.1511 18.9147L15.1353 17.866C15.212 17.8275 15.2983 17.8275 15.3749 17.866L17.3591 18.9147C17.5796 19.0301 17.8192 19.0879 18.0589 19.0879C18.3752 19.0879 18.6819 18.9917 18.9503 18.7992C19.42 18.4625 19.65 17.8949 19.5542 17.3176L19.1708 15.1048C19.1612 15.0183 19.1803 14.9413 19.2474 14.8739L20.8482 13.3057C21.2604 12.9017 21.4041 12.3052 21.2316 11.7568C21.0303 11.1988 20.5702 10.8043 19.9951 10.7274ZM19.9568 12.4014L18.356 13.9696C18.0013 14.3159 17.8384 14.8162 17.9247 15.3069L18.2985 17.5197C18.3272 17.664 18.2314 17.7409 18.193 17.7698C18.1643 17.7891 18.1068 17.8179 18.0397 17.8179C18.0013 17.8179 17.963 17.8083 17.9151 17.7891L15.9309 16.7404C15.4996 16.5095 14.9628 16.5095 14.5314 16.7404L12.5664 17.7987C12.5185 17.8179 12.4802 17.8275 12.4418 17.8275C12.3843 17.8275 12.3268 17.7987 12.298 17.7794C12.2501 17.7409 12.1734 17.664 12.1926 17.5293L12.5664 15.3165C12.6527 14.8258 12.4897 14.3256 12.1351 13.9792L10.5343 12.411C10.4289 12.3148 10.4576 12.1897 10.4672 12.1512C10.4864 12.1031 10.5343 11.9973 10.6781 11.9781L12.8923 11.651C13.3812 11.5836 13.8029 11.2661 14.0234 10.8236L15.0107 8.81282C15.0682 8.68775 15.1928 8.66851 15.2408 8.66851C15.2983 8.66851 15.4133 8.68775 15.4708 8.81282L16.4581 10.8236C16.6786 11.2661 17.1003 11.574 17.5892 11.651L19.8034 11.9781C19.9472 11.9973 19.9951 12.1031 20.0143 12.1512C20.043 12.1897 20.0622 12.3052 19.9568 12.4014ZM39.07 15.3069C38.9358 15.1722 38.7537 15.0952 38.562 15.0952C38.3703 15.0952 38.1881 15.1722 38.0539 15.3069C37.9198 15.4416 37.8431 15.6244 37.8431 15.8168C37.8431 16.0092 37.9198 16.192 38.0539 16.3267C38.1881 16.4614 38.3703 16.5383 38.562 16.5383C38.7537 16.5383 38.9358 16.4614 39.07 16.3267C39.2042 16.192 39.2809 16.0092 39.2809 15.8168C39.2809 15.6244 39.2042 15.4319 39.07 15.3069ZM14.6273 21.2718V27.2367C14.6273 27.5831 14.9053 27.8621 15.2503 27.8621C15.5954 27.8621 15.8734 27.5831 15.8734 27.2367V21.2718C15.8734 20.9254 15.5954 20.6464 15.2503 20.6464C14.9053 20.6464 14.6273 20.9254 14.6273 21.2718ZM9.11569 21.3584C9.02943 21.3103 8.92399 21.291 8.82813 21.291C8.5885 21.291 8.37762 21.4161 8.27218 21.6278C8.1955 21.7721 8.17633 21.9452 8.23384 22.1088C8.28177 22.2724 8.38721 22.3974 8.54057 22.4744C8.62684 22.5225 10.5823 23.6481 10.8219 27.2848C10.8411 27.6119 11.119 27.8717 11.4449 27.8717C11.4641 27.8717 11.4737 27.8717 11.4833 27.8717C11.8284 27.8524 12.0872 27.5542 12.068 27.2078C11.7708 22.7919 9.22113 21.4065 9.11569 21.3584Z" fill="white"/>
</svg>
