<svg width="280" height="65" viewBox="0 0 280 65" fill="none" xmlns="http://www.w3.org/2000/svg">
<path d="M1.65698 46.6576H12.1654C12.3662 46.6725 12.5679 46.6468 12.7584 46.5821C12.9489 46.5174 13.1241 46.4151 13.2735 46.2812C13.4228 46.1474 13.5432 45.9849 13.6274 45.8036C13.7115 45.6223 13.7577 45.4259 13.763 45.2264V30.7584H15.2856C17.7904 30.7584 23.0052 30.7584 26.9971 28.381C30.7879 25.9645 33.0521 21.2526 33.0521 15.7821C33.0521 11.606 31.8687 8.08672 29.502 5.32216C25.6796 0.672857 19.8535 0.672852 14.7097 0.672852H1.65698C0.729998 0.672852 0.00024591 1.29458 0.00024591 2.08837V18.011C0.00024591 18.793 0.729998 19.4226 1.65698 19.4226C2.58396 19.4226 3.30977 18.8008 3.30977 18.011V3.50779H14.7097C19.4432 3.50779 23.944 3.5078 26.8275 7.00749C28.7643 9.27935 29.7426 12.2355 29.7426 15.7899C29.7426 20.3141 27.9281 24.2674 25.0091 26.0974C21.9756 27.8922 17.7786 27.8922 15.2738 27.8922H12.1654C11.2384 27.8922 10.5126 28.514 10.5126 29.3077V43.8266H3.30977V24.9673C3.30977 23.5948 3.42416 23.1569 5.8146 23.1569H14.7097C19.889 23.1569 21.9086 20.9046 21.9086 15.1174C21.9086 10.0536 19.4827 7.48063 14.7097 7.48063H12.1654C11.2384 7.48063 10.5126 8.10236 10.5126 8.89614V11.9892H13.763V10.3078H14.7097C17.5814 10.3078 18.5991 11.5669 18.5991 15.1135C18.5991 20.3258 16.966 20.3259 14.7097 20.3259H5.8146C3.31766 20.3259 0.00024591 20.8029 0.00024591 24.9634V45.2264C-0.0155325 46.0359 0.729998 46.6576 1.65698 46.6576Z" fill="#10BCF4"/>
<path d="M79.271 43.8256C78.344 43.8256 77.6143 44.4473 77.6143 45.2411C77.6143 46.0349 78.344 46.6566 79.271 46.6566H102.891C103.818 46.6566 104.544 46.0349 104.544 45.2411V37.272C104.544 36.4899 103.818 35.8603 102.891 35.8603H83.7087C81.6417 35.8603 80.9159 35.6648 80.9159 33.4712V3.50681H88.1779V11.9921H91.4993V2.09521C91.4993 1.31316 90.7695 0.679688 89.8425 0.679688H79.271C78.344 0.679688 77.6143 1.30143 77.6143 2.09521V33.4712C77.6143 38.6875 82.2058 38.6875 83.7166 38.6875H101.235V43.8256H79.271Z" fill="#10BCF4"/>
<path d="M167.992 0.679688H140.502C139.575 0.679688 138.846 1.30143 138.846 2.09521V10.0604C138.846 10.8425 139.575 11.4759 140.502 11.4759H155.007C156.979 11.4759 157.74 11.6832 157.74 13.8651V43.8256H150.53V15.3862C150.53 14.6041 149.804 13.9707 148.877 13.9707C147.95 13.9707 147.22 14.5924 147.22 15.3862V45.2254C147.22 46.0075 147.946 46.6409 148.877 46.6409H159.385C160.316 46.6409 161.042 46.0192 161.042 45.2254V13.8651C161.042 8.6449 156.494 8.64491 154.999 8.64491H142.155V3.50681H166.336V11.9882H169.645V2.09521C169.645 1.30143 168.919 0.679688 167.992 0.679688Z" fill="#10BCF4"/>
<path d="M202.654 0.679688H175.519C174.592 0.679688 173.866 1.30143 173.866 2.09521V12.0077H177.172V3.50681H201.001V8.24215H186.252C185.325 8.24215 184.6 8.86388 184.6 9.65766V19.6836C184.6 20.4656 185.325 21.0991 186.252 21.0991H197.191V25.4747H180.694C176.86 25.5724 173.858 27.9851 173.858 30.9491V45.2254C173.858 46.0075 174.584 46.6409 175.511 46.6409H202.654C203.581 46.6409 204.311 46.0192 204.311 45.2254V37.6747C204.311 36.8927 203.581 36.2631 202.654 36.2631H187.905V32.126C187.905 31.344 187.179 30.7105 186.252 30.7105C185.325 30.7105 184.592 31.3323 184.592 32.126V37.6747C184.592 38.4568 185.317 39.0902 186.244 39.0902H201.001V43.8256H177.164V31.0077C177.164 29.5179 178.896 28.2705 180.939 28.2705H198.792C199.735 28.2705 200.449 27.684 200.449 26.9019V19.6836C200.449 18.9015 199.719 18.2681 198.792 18.2681H187.905V11.0732H202.654C203.581 11.0732 204.311 10.4514 204.311 9.65766V2.09521C204.315 1.30143 203.581 0.679688 202.654 0.679688Z" fill="#10BCF4"/>
<path d="M216.665 5.65424C218.965 3.81642 222.003 2.88578 225.691 2.88578C231.706 2.88578 235.848 5.53693 238.002 10.761C238.13 11.0761 238.277 11.383 238.444 11.68L238.621 11.9928H241.931L241.682 11.2107C241.639 11.0817 241.595 10.9487 241.548 10.8197C238.392 1.87693 231.217 0 225.77 0H225.655C221.143 0 217.372 1.17308 214.472 3.49969C208.342 8.33669 207.076 17.2873 207.076 23.9426C207.076 33.5383 209.301 40.0255 213.889 43.7832C214.219 44.0398 214.628 44.1776 215.048 44.1743C215.43 44.1792 215.802 44.0536 216.101 43.8184C216.275 43.6865 216.415 43.5173 216.513 43.3236C216.611 43.1298 216.663 42.9167 216.665 42.7001C216.664 42.5036 216.619 42.3098 216.533 42.1327C216.447 41.9556 216.322 41.7995 216.168 41.6756C212.33 38.5239 210.382 32.5569 210.382 23.9347C210.366 17.8543 211.459 9.76784 216.665 5.65424Z" fill="#10BCF4"/>
<path d="M241.075 28.8229L229.907 28.1738C228.981 28.1738 228.294 28.686 228.199 29.4485C228.148 30.0048 228.129 30.5636 228.14 31.1221V31.1886C228.089 33.2141 228.014 35.9865 226.243 36.9288C226.054 37.0357 225.892 37.1832 225.768 37.3606C225.645 37.5379 225.563 37.7405 225.529 37.9533C225.503 38.146 225.52 38.3421 225.581 38.5269C225.642 38.7118 225.744 38.8806 225.88 39.0208C226.154 39.3132 226.519 39.5064 226.916 39.5695C227.314 39.6325 227.721 39.5619 228.073 39.3688C231.304 37.5975 231.391 33.7811 231.45 31.255V31.1495L239.154 31.5796C238.566 35.9004 236.329 44.4209 227.833 44.46H227.777C226.85 44.459 225.937 44.2334 225.117 43.8027C224.298 43.372 223.597 42.7492 223.075 41.9887C222.535 41.2653 221.632 38.6259 221.632 29.12V24.4512C221.632 22.3905 221.734 15.438 223.016 12.5405C223.845 10.8122 224.539 10.6323 225.927 10.6323C226.157 10.6362 226.382 10.7019 226.577 10.8224C226.772 10.943 226.931 11.1138 227.036 11.3166C227.116 11.4641 227.206 11.6065 227.304 11.7428L227.485 11.9931H230.7L230.558 11.2892H230.744L230.318 10.4251C229.961 9.58574 229.354 8.87417 228.579 8.38515C227.804 7.89614 226.897 7.65291 225.979 7.68787H225.919C222.973 7.68787 221.186 8.81404 220.003 11.4574C218.551 14.6364 218.334 20.9241 218.334 24.3847V29.077C218.334 34.5045 218.555 41.0503 220.306 43.4903C221.142 44.674 222.254 45.639 223.549 46.3024C224.843 46.9658 226.281 47.3077 227.738 47.2989H227.797C240.684 47.2989 242.392 33.1554 242.617 30.3205V30.2736C242.615 30.0771 242.572 29.8831 242.493 29.7031C242.414 29.5231 242.299 29.3606 242.155 29.2254C242.011 29.0902 241.841 28.9849 241.656 28.9157C241.47 28.8466 241.273 28.815 241.075 28.8229Z" fill="#10BCF4"/>
<path d="M278.3 0.722897H267.618C266.687 0.722897 265.961 1.34463 265.961 2.13841V12.0979L266.664 12.0001C266.835 11.9841 267.008 11.9841 267.18 12.0001C267.443 12.0145 267.706 12.0145 267.969 12.0001C268.171 11.9802 268.375 11.9802 268.577 12.0001L269.291 12.1174V3.55392H276.667V43.8297H269.291V26.8904C269.291 26.1083 268.565 25.4749 267.638 25.4749H263.997C260.486 25.4749 260.34 24.8219 260.34 22.3232V2.13841C260.333 1.94024 260.285 1.74557 260.2 1.56608C260.115 1.38659 259.994 1.22596 259.845 1.0938C259.696 0.961646 259.522 0.860687 259.332 0.796954C259.143 0.733222 258.942 0.708033 258.743 0.722897H247.982C247.055 0.722897 246.329 1.34463 246.329 2.13841V45.2256C246.329 46.0077 247.055 46.6411 247.978 46.6411L258.668 46.6842H258.723C259.11 46.69 259.489 46.566 259.796 46.3322C259.958 46.2048 260.089 46.0432 260.18 45.8592C260.27 45.6752 260.318 45.4734 260.321 45.2686V31.0978C260.314 30.8995 260.266 30.7045 260.182 30.5248C260.097 30.345 259.976 30.1842 259.827 30.0519C259.677 29.9197 259.503 29.8187 259.313 29.7552C259.123 29.6917 258.923 29.6669 258.723 29.6823C257.796 29.6823 257.07 30.304 257.07 31.0978V43.8688L249.635 43.8297V3.55392H257.07V22.3232C257.07 26.0184 258.226 28.3059 263.977 28.3059H265.95V45.2256C265.95 46.0077 266.675 46.6411 267.606 46.6411H278.288C279.235 46.6411 280 46.0077 280 45.2256V2.13841C280.012 1.35636 279.263 0.722897 278.3 0.722897Z" fill="#10BCF4"/>
<path d="M40.2989 42.0979C40.7066 42.6422 41.1635 43.1487 41.6637 43.6111C41.9633 43.8802 42.345 44.0422 42.7482 44.0713C43.1514 44.1003 43.5528 43.9948 43.8885 43.7715C44.062 43.6553 44.2068 43.5018 44.312 43.3223C44.4171 43.1429 44.48 42.9422 44.4959 42.7352C44.5116 42.5391 44.4825 42.342 44.4108 42.1586C44.3391 41.9751 44.2266 41.81 44.0818 41.6756C43.7563 41.3657 43.4543 41.0324 43.1784 40.6784L42.9812 40.4399C40.22 36.6665 38.9025 31.0787 38.9025 23.3521C38.9025 9.39631 43.6045 2.89354 53.7066 2.89354C63.647 2.89354 68.278 9.64266 68.278 24.138C68.278 33.4836 65.43 44.4127 57.4027 44.4714H57.2843C52.2629 44.4714 51.541 42.1252 50.973 40.2248L50.8349 39.8338C50.0854 37.4368 50.1801 30.2458 50.2275 26.7853C50.2275 26.2652 50.2275 25.7881 50.259 25.3541C50.2906 24.9201 50.2866 24.619 50.2866 24.2944C50.2866 19.301 50.405 14.4093 51.2728 12.462C52.0183 10.8001 52.8033 10.6593 53.4818 10.6593C54.5705 10.6593 55.0596 10.8509 55.4738 11.4414C55.5566 11.5704 55.6395 11.6877 55.7262 11.7972L55.9116 12.0357H59.1186L58.9726 11.3045C58.9332 11.1157 58.8654 10.9338 58.7715 10.7649C57.6985 8.71202 56.0694 7.79702 53.4818 7.79702C51.0755 7.79702 49.2926 9.03266 48.1841 11.4727C47.1783 13.6976 46.9771 18.0341 46.9771 24.3101V27.2076C46.914 31.7161 46.8311 37.8826 47.6319 40.5416L47.6832 40.827V40.8896C48.1881 42.6492 49.5411 47.322 57.1502 47.3728H57.2646C67.852 47.3728 71.6269 35.3879 71.6269 24.1732C71.6269 19.8015 71.3232 13.4043 68.7 8.35228C65.8402 2.84272 60.7872 0.0507812 53.6869 0.0507812C41.498 0.0507812 35.5732 7.68362 35.5732 23.3872C35.5732 31.853 37.0604 37.8005 40.2555 42.0979H40.2989Z" fill="#10BCF4"/>
<path d="M110.721 26.6327L110.642 44.5495C110.643 44.7215 110.679 44.8917 110.746 45.0502C110.814 45.2086 110.913 45.3521 111.037 45.4723C111.37 45.7875 111.815 45.9614 112.276 45.9572L122.808 45.9846C123.723 45.9846 124.441 45.3707 124.445 44.5886L124.524 26.8125C124.52 26.6467 124.484 26.4831 124.416 26.3314C124.348 26.1797 124.251 26.0428 124.129 25.9288C123.791 25.6123 123.34 25.4409 122.875 25.4518C121.948 25.4518 121.246 26.0305 121.242 26.8047L121.171 43.1809H113.905L113.98 26.4098C113.978 26.3033 113.96 26.1976 113.924 26.097V26.0227L104.536 3.64422H111.143C112.567 6.81154 117.198 17.381 118.603 20.6343C119.273 22.1007 120.827 23.0157 122.662 23.0196C124.606 23.0196 126.393 22.0655 127.001 20.6734C127.691 19.1093 130.156 13.3299 134.342 3.50736C134.523 3.08896 134.634 2.82307 134.665 2.7566C134.764 2.54057 134.8 2.30112 134.768 2.06589C134.736 1.83066 134.637 1.60921 134.484 1.4271C134.318 1.23967 134.112 1.09246 133.88 0.996856C133.648 0.90125 133.397 0.85981 133.146 0.875747L123.123 0.852286C122.781 0.840322 122.444 0.932965 122.156 1.11763C121.869 1.3023 121.646 1.57006 121.518 1.8846L118.323 11.9574L113.857 1.79076C113.728 1.49776 113.511 1.25109 113.236 1.08399C112.961 0.916893 112.641 0.837389 112.319 0.8562L102.296 0.828825C102.046 0.812243 101.796 0.852624 101.565 0.946856C101.334 1.04109 101.128 1.18666 100.962 1.37236C100.81 1.55438 100.712 1.77462 100.679 2.00862C100.645 2.24262 100.678 2.48122 100.773 2.69793L110.721 26.6327ZM121.695 11.9887L124.401 3.6755L130.843 3.69506L128.827 8.41474C126.977 12.7512 124.673 18.1513 123.995 19.6802C123.904 19.8914 123.399 20.1846 122.697 20.1846C122.133 20.1846 121.849 20.0282 121.679 19.6255C121.025 18.1435 119.707 15.1326 118.327 11.9926L121.695 11.9887Z" fill="#10BCF4"/>
<path d="M0.0273438 49.5273H140.017V65.0003H0.0273438V49.5273ZM11.0722 52.2841H5.32495V62.2592H6.77656V53.6566H9.62457V62.2592H11.0762L11.0722 52.2841ZM14.5238 60.8867V57.8406H17.7347V56.515H14.5277V53.6214H18.0069V52.2684H13.0761V62.2435H18.1528V60.8867H14.5238ZM23.5569 52.2841V57.254C23.1719 57.4008 22.7623 57.4738 22.3499 57.4691C21.2848 57.4691 20.6813 56.8982 20.6813 55.6899V52.2841H19.2336V55.6469C19.2336 57.6685 20.3697 58.8221 22.196 58.8221C22.6606 58.8231 23.122 58.7464 23.5609 58.5953V62.2866H25.0125V52.2919L23.5569 52.2841ZM31.2371 62.2592H32.7439L30.2154 52.2841H28.6376L26.1051 62.2592H27.6317L28.0893 60.2493H30.7519L31.2371 62.2592ZM28.4206 58.912L29.0399 56.2335C29.1977 55.5765 29.3437 54.6224 29.4344 54.0985H29.4778C29.5488 54.6224 29.7066 55.5765 29.8722 56.2335L30.5034 58.912H28.4206ZM38.2466 52.2919H32.5822V53.6566H34.6649V62.2592H36.1441V53.6566H38.2466V52.2919ZM43.1656 62.267H44.6763L42.1478 52.2919H40.57L38.0415 62.267H39.5641L40.0256 60.2571H42.6843L43.1656 62.267ZM40.3452 58.912L40.9645 56.2335C41.1222 55.5765 41.2643 54.6224 41.3353 54.0985H41.3786C41.4536 54.6224 41.6114 55.5765 41.7534 56.2335L42.3885 58.912H40.3452ZM49.8359 59.3812C49.7373 60.523 49.2205 61.0626 48.258 61.0626C47.3823 61.0626 46.8183 60.5074 46.8183 59.3265V57.8171H49.3941V56.5658H46.8183V55.209C46.8183 54.0124 47.3823 53.4572 48.2304 53.4572C49.1929 53.4572 49.7096 53.9851 49.8083 55.1542H51.2441C51.1573 53.1717 50.0804 52.0886 48.2541 52.0886C46.4277 52.0886 45.3509 53.1874 45.3509 55.2168V59.3226C45.3509 61.3324 46.5027 62.4273 48.2699 62.4273C50.1238 62.4273 51.2007 61.3442 51.3033 59.3773L49.8359 59.3812ZM59.082 52.288L57.3859 56.3351C57.1571 56.9021 56.8099 57.8601 56.6522 58.3137H56.5969C56.4391 57.8601 56.092 56.9021 55.8632 56.3351L54.1671 52.288H52.6878V62.2631H54.1118V58.3724C54.0803 57.2306 54.0369 56.1904 53.9935 55.1503L54.0527 55.1229C54.3406 55.905 54.6838 56.8317 55.0309 57.7428L55.9066 60.0108H57.3425L58.2221 57.7428C58.5653 56.8317 58.9085 55.9206 59.1964 55.1229L59.2556 55.1503C59.1964 56.1904 59.1688 57.2306 59.1412 58.3724V62.2631H60.5652V52.2919L59.082 52.288ZM70.0559 57.1328C70.3939 56.8902 70.6647 56.567 70.8433 56.1932C71.0219 55.8193 71.1025 55.4068 71.0776 54.9939C71.0776 53.3281 70.0283 52.288 68.4031 52.288H65.6735V62.2631H68.5491C70.3005 62.2631 71.4523 61.1917 71.4523 59.4125C71.4798 58.9376 71.3609 58.4656 71.1115 58.0591C70.8621 57.6527 70.494 57.331 70.0559 57.1367V57.1328ZM68.2256 53.6449C69.1605 53.6449 69.5905 54.1024 69.5905 55.0408C69.5905 55.9793 69.1447 56.5072 68.269 56.5072H67.1172V53.6449H68.2256ZM68.3519 60.9101H67.1172V57.864H68.3006C69.3222 57.864 69.9691 58.3919 69.9691 59.4282C69.9691 60.4644 69.409 60.9101 68.3597 60.9101H68.3519ZM75.5744 62.4352C77.4284 62.4352 78.5053 61.352 78.6078 59.3851H77.1681C77.0694 60.5269 76.5527 61.0666 75.5902 61.0666C74.7145 61.0666 74.1544 60.5113 74.1544 59.3304V55.2246C74.1544 54.0281 74.7145 53.4728 75.5626 53.4728C76.5251 53.4728 77.0418 54.0007 77.1404 55.1699H78.5763C78.4934 53.1874 77.4126 52.1042 75.5863 52.1042C73.7599 52.1042 72.683 53.203 72.683 55.2324V59.3382C72.6633 61.3403 73.8151 62.4312 75.5823 62.4312L75.5744 62.4352ZM81.4716 60.9101V57.864H84.6786V56.5385H81.4795V53.6449H84.9586V52.2919H80.0279V62.267H85.1007V60.9101H81.4716ZM94.0391 52.3075V56.5541H91.1951V52.2919H89.7434V62.267H91.1951V57.8914H94.0391V62.267H95.4907V52.2919L94.0391 52.3075ZM101.719 62.2826H103.23L100.698 52.3075H99.1198L96.6268 62.267H98.1494L98.6109 60.2571H101.27L101.719 62.2826ZM98.9107 58.912L99.53 56.2335C99.6878 55.5765 99.8298 54.6224 99.9008 54.0985H99.9442C100.019 54.6224 100.177 55.5765 100.319 56.2335L100.966 58.912H98.9107ZM111.837 57.1328C112.175 56.8902 112.446 56.567 112.625 56.1932C112.803 55.8193 112.884 55.4068 112.859 54.9939C112.859 53.3281 111.81 52.288 110.184 52.288H107.455V62.2631H110.33C112.082 62.2631 113.234 61.1917 113.234 59.4125C113.261 58.9376 113.142 58.4656 112.893 58.0591C112.643 57.6527 112.275 57.331 111.837 57.1367V57.1328ZM110.015 53.6409C110.946 53.6409 111.38 54.0984 111.38 55.0369C111.38 55.9754 110.934 56.5033 110.058 56.5033H108.906V53.6409H110.015ZM110.141 60.9062H108.906V57.8601H110.09C111.107 57.8601 111.758 58.388 111.758 59.4242C111.758 60.4605 111.222 60.9101 110.141 60.9101V60.9062ZM117.364 62.4312C119.218 62.4312 120.294 61.3481 120.397 59.3812H118.957C118.859 60.523 118.338 61.0626 117.379 61.0626C116.5 61.0626 115.94 60.5074 115.94 59.3265V55.2207C115.94 54.0242 116.5 53.4689 117.352 53.4689C118.31 53.4689 118.831 53.9968 118.93 55.166H120.365C120.279 53.1835 119.202 52.1003 117.375 52.1003C115.608 52.1003 114.472 53.1991 114.472 55.2285V59.3343C114.445 61.3403 115.596 62.4312 117.364 62.4312ZM123.261 60.9062V57.8601H126.468V56.5346H123.261V53.6409H126.74V52.288H121.809V62.2631H126.882V60.9062H123.261ZM134.834 52.3036L133.138 56.3508C132.909 56.9178 132.562 57.8758 132.404 58.3294H132.349C132.191 57.8758 131.844 56.9178 131.615 56.3508L129.919 52.3036H128.44V62.2787H129.86V58.388C129.832 57.2462 129.789 56.2061 129.746 55.166L129.805 55.1386C130.093 55.9206 130.436 56.8474 130.783 57.7585L131.659 60.0264H133.095L133.97 57.7585C134.317 56.8474 134.661 55.9363 134.949 55.1386L135.008 55.166C134.949 56.2061 134.921 57.2462 134.893 58.388V62.2787H136.317V52.2919L134.834 52.3036Z" fill="#10BCF4"/>
</svg>
