<svg width="29" height="34" viewBox="0 0 29 34" fill="none" xmlns="http://www.w3.org/2000/svg">
<path d="M7.42983 11.9966H23.6087C24.0054 11.9966 24.3344 11.6824 24.3344 11.2826C24.3344 10.8922 24.0151 10.5685 23.6087 10.5685H7.42983C7.0331 10.5685 6.70411 10.8827 6.70411 11.2826C6.71378 11.6824 7.0331 11.9966 7.42983 11.9966ZM6.71378 15.5671C6.71378 15.9574 7.0331 16.2812 7.43951 16.2812H23.6184C24.0151 16.2812 24.3441 15.967 24.3441 15.5671C24.3441 15.1767 24.0248 14.853 23.6184 14.853H7.42983C7.0331 14.853 6.71378 15.1767 6.71378 15.5671ZM27.605 32.5433C27.605 32.5909 27.5663 32.629 27.5179 32.629H13.8259C13.4388 32.629 13.1292 32.9336 13.1292 33.3145C13.1292 33.6953 13.4388 34 13.8259 34H27.5179C28.3404 34 28.9984 33.343 28.9984 32.5433V26.2974C28.9984 25.9166 28.6888 25.6119 28.3017 25.6119C27.9147 25.6119 27.605 25.9166 27.605 26.2974V32.5433ZM27.5179 0H3.53026C2.70777 0 2.04978 0.656959 2.04978 1.45673V2.17082H1.81755C0.849916 2.17082 0.0371031 2.90395 -0.00160224 3.84654C-0.0403076 4.83674 0.772505 5.65556 1.76917 5.65556H2.04978V7.40745H1.81755C0.849916 7.40745 0.0371031 8.14058 -0.00160224 9.08317C-0.0403076 10.0734 0.772505 10.8922 1.76917 10.8922H2.04978V12.6441H1.81755C0.859592 12.6441 0.0371031 13.3772 0.0080741 14.3198C-0.0306313 15.31 0.782182 16.1288 1.77885 16.1288H2.05946V17.8807H1.82723C0.869269 17.8807 0.0467795 18.6138 0.0177504 19.5564C-0.0209549 20.5466 0.791858 21.3654 1.78852 21.3654H2.06914V23.1173H1.8369C0.878945 23.1173 0.0564558 23.8505 0.0274268 24.7931C-0.0112786 25.7833 0.801534 26.6021 1.7982 26.6021H2.07881V28.354H1.84658C0.888622 28.354 0.0661322 29.0871 0.0371031 30.0297C-0.00160224 31.0199 0.811211 31.8387 1.80787 31.8387H2.08849V32.5528C2.08849 33.3621 2.75616 34.0095 3.56897 34.0095H6.62669C7.01375 34.0095 7.32339 33.7048 7.32339 33.324C7.32339 32.9432 7.01375 32.6385 6.62669 32.6385H3.53026C3.48188 32.6385 3.44318 32.6004 3.44318 32.5528V1.45673C3.44318 1.40913 3.48188 1.37104 3.53026 1.37104H27.5179C27.5663 1.37104 27.605 1.40913 27.605 1.45673V19.2041C27.605 19.585 27.9147 19.8897 28.3017 19.8897C28.6888 19.8897 28.9984 19.585 28.9984 19.2041V1.45673C28.9984 0.656959 28.3404 0 27.5179 0ZM2.04978 4.27499H1.76917C1.56597 4.27499 1.40147 4.11313 1.40147 3.91319C1.40147 3.71325 1.56597 3.55139 1.76917 3.55139H2.04978V4.27499ZM2.04978 9.51162H1.76917C1.56597 9.51162 1.40147 9.34976 1.40147 9.14982C1.40147 8.94987 1.56597 8.78801 1.76917 8.78801H2.04978V9.51162ZM2.04978 14.7482H1.76917C1.56597 14.7482 1.40147 14.5864 1.40147 14.3864C1.40147 14.1865 1.56597 14.0246 1.76917 14.0246H2.04978V14.7482ZM2.04978 19.9849H1.76917C1.56597 19.9849 1.40147 19.823 1.40147 19.6231C1.40147 19.4231 1.56597 19.2613 1.76917 19.2613H2.04978V19.9849ZM2.04978 25.2215H1.76917C1.56597 25.2215 1.40147 25.0596 1.40147 24.8597C1.40147 24.6598 1.56597 24.4979 1.76917 24.4979H2.04978V25.2215ZM2.04978 30.4486H1.76917C1.56597 30.4486 1.40147 30.2868 1.40147 30.0868C1.40147 29.8869 1.56597 29.725 1.76917 29.725H2.04978V30.4486ZM7.42983 24.8502H18.7415C19.1382 24.8502 19.4672 24.536 19.4672 24.1361C19.4672 23.7362 19.1479 23.422 18.7415 23.422H7.42983C7.0331 23.422 6.70411 23.7362 6.70411 24.1361C6.70411 24.536 7.0331 24.8502 7.42983 24.8502ZM7.42983 20.5657H23.6087C24.0054 20.5657 24.3344 20.2515 24.3344 19.8516C24.3344 19.4517 24.0151 19.1375 23.6087 19.1375H7.42983C7.0331 19.1375 6.70411 19.4517 6.70411 19.8516C6.70411 20.2515 7.0331 20.5657 7.42983 20.5657Z" fill="white"/>
</svg>
