<svg width="40" height="34" viewBox="0 0 40 34" fill="none" xmlns="http://www.w3.org/2000/svg">
<path d="M4.97714 3.29277H7.53791C7.93261 3.29277 8.25993 2.97963 8.25993 2.58108C8.25993 2.18253 7.94224 1.86938 7.53791 1.86938H4.97714C4.58243 1.86938 4.25511 2.18253 4.25511 2.58108C4.25511 2.97963 4.58243 3.29277 4.97714 3.29277ZM1.43442 29.4641C1.43442 29.0466 1.06859 28.7145 0.635379 28.7619C0.259928 28.7999 0 29.132 0 29.5021C0.00962695 30.6977 0.490975 31.827 1.34777 32.6715C2.2142 33.5255 3.36943 34 4.60168 34H25.9639C26.3586 34 26.6859 33.6869 26.6859 33.2883C26.6859 32.8992 26.3682 32.5766 25.9639 32.5766H4.60168C2.85921 32.5861 1.43442 31.1912 1.43442 29.4641ZM34.3586 11.7192C35.4368 11.7192 36.3225 10.8557 36.3225 9.78342C36.3225 8.71114 35.4464 7.84761 34.3586 7.84761C33.2804 7.84761 32.3947 8.71114 32.3947 9.78342C32.3947 10.8557 33.2804 11.7192 34.3586 11.7192ZM34.3586 9.26151C34.6474 9.26151 34.8881 9.49874 34.8881 9.78342C34.8881 10.0681 34.6474 10.3053 34.3586 10.3053C34.0698 10.3053 33.8291 10.0681 33.8291 9.78342C33.8291 9.49874 34.0698 9.26151 34.3586 9.26151ZM35.3983 4.22272H30.1709C29.3718 4.22272 28.7461 3.57745 28.7461 2.79933C28.7365 1.25258 27.4561 0 25.8773 0H14.1227C12.5535 0 11.2732 1.25258 11.2635 2.79933C11.2539 3.58694 10.6282 4.22272 9.83875 4.22272H4.60168C2.06017 4.22272 0 6.25342 0 8.76807V22.3282C0 22.6888 0.259928 23.0114 0.625752 23.0589C1.06859 23.1158 1.43442 22.7742 1.43442 22.3567V8.76807C1.43442 7.04103 2.84958 5.64611 4.60168 5.64611H9.82912C11.3983 5.64611 12.6787 4.39353 12.6883 2.84678C12.698 2.05917 13.3237 1.42339 14.1131 1.42339H25.8773C26.6763 1.42339 27.302 2.06866 27.302 2.84678C27.3117 4.39353 28.5921 5.64611 30.1612 5.64611H35.3887C37.1408 5.64611 38.556 7.04103 38.556 8.76807V29.4736C38.556 31.2007 37.1408 32.5956 35.3887 32.5956H33.1745C32.7798 32.5956 32.4525 32.9087 32.4525 33.3073C32.4525 33.6963 32.7702 34.019 33.1745 34.019H35.3887C37.9302 34.019 39.9904 31.9883 39.9904 29.4831V8.76807C40 6.25342 37.9398 4.22272 35.3983 4.22272ZM26.7822 14.8222C26.426 15.0025 26.2912 15.4295 26.4741 15.7806C27.0132 16.8055 27.2828 17.9062 27.2828 19.0639C27.2828 23.0209 24.0193 26.2378 20.0048 26.2378C15.9904 26.2378 12.7268 23.0209 12.7268 19.0639C12.7268 15.1069 15.9904 11.89 20.0048 11.89C21.8051 11.89 23.5379 12.5448 24.8761 13.731C25.1745 13.9967 25.627 13.9682 25.8869 13.674C26.1564 13.3799 26.1276 12.9339 25.8291 12.6776C24.231 11.2543 22.1612 10.4761 19.9952 10.4761C15.1913 10.4761 11.2828 14.3288 11.2828 19.0639C11.2828 23.7991 15.1913 27.6517 19.9952 27.6517C24.799 27.6517 28.7076 23.7991 28.7076 19.0639C28.7076 17.6975 28.3706 16.3405 27.7449 15.1354C27.5716 14.7748 27.1288 14.6419 26.7822 14.8222Z" fill="white"/>
</svg>
