<svg width="35" height="34" viewBox="0 0 35 34" fill="none" xmlns="http://www.w3.org/2000/svg">
<path d="M33.1277 0H1.87231C0.837366 0.00954252 0 0.868369 0 1.91805V5.30564C0 5.69688 0.319892 6.02133 0.705645 6.02133C1.0914 6.02133 1.41129 5.69688 1.41129 5.30564V1.91805C1.41129 1.65086 1.62769 1.43138 1.89113 1.43138H33.1089C33.3723 1.43138 33.5887 1.65086 33.5887 1.91805V18.0067H1.41129V12.4625C1.41129 12.0713 1.0914 11.7468 0.705645 11.7468C0.319892 11.7468 0 12.0713 0 12.4625V20.7073C0 21.7665 0.846774 22.6253 1.89113 22.6253H14.254V27.4157C13.2567 27.4347 12.4476 28.2554 12.4476 29.2765V29.9921H9.52151C8.4207 29.9921 7.5457 30.9082 7.5457 31.9961C7.5457 33.103 8.43011 34 9.52151 34H11.4315C11.8172 34 12.1371 33.6756 12.1371 33.2843C12.1371 32.8931 11.8172 32.5686 11.4315 32.5686H9.52151C9.21102 32.5686 8.9664 32.3205 8.95699 32.0056C8.95699 31.977 8.95699 31.9579 8.9664 31.9197C8.97581 31.872 8.97581 31.8529 8.98522 31.8434C9.05107 31.5953 9.27688 31.414 9.53091 31.414H25.4785C25.7325 31.414 25.9583 31.5857 26.0242 31.8434C26.1089 32.2346 25.8266 32.5591 25.4785 32.5591H18.4879C18.1021 32.5591 17.7823 32.8835 17.7823 33.2748C17.7823 33.666 18.1021 33.9905 18.4879 33.9905H25.4785C26.7298 33.9905 27.7366 32.7881 27.3884 31.4712C27.1626 30.5933 26.3723 29.9826 25.4785 29.9826H22.5524V29.2669C22.5524 28.2554 21.7433 27.4252 20.746 27.4061V26.6904C20.746 26.2992 20.4261 25.9747 20.0403 25.9747C19.6546 25.9747 19.3347 26.2992 19.3347 26.6904V27.4061H15.6653V22.6158H19.3347V23.9231C19.3347 24.3143 19.6546 24.6388 20.0403 24.6388C20.4261 24.6388 20.746 24.3143 20.746 23.9231V22.6158H33.1089C34.1532 22.6158 35 21.7569 35 20.6977V1.91805C35 0.868369 34.1626 0.00954252 33.1277 0ZM20.7177 28.847C20.9435 28.847 21.1411 29.0474 21.1411 29.2765V29.9921H13.8683V29.2765C13.8683 29.0474 14.0659 28.847 14.2917 28.847H20.7177ZM33.5887 20.7073C33.5887 20.9745 33.3723 21.1939 33.1089 21.1939H1.89113C1.62769 21.1939 1.41129 20.9745 1.41129 20.7073V19.4381H33.5887V20.7073Z" fill="white"/>
</svg>
