<svg width="37" height="34" viewBox="0 0 37 34" fill="none" xmlns="http://www.w3.org/2000/svg">
<path d="M31.1097 29.113C31.1965 29.151 31.2929 29.17 31.3796 29.17C31.476 29.17 31.5628 29.151 31.6496 29.113C31.7363 29.0751 31.8134 29.0276 31.8906 28.9612C31.9484 28.8948 31.9966 28.8189 32.0352 28.7335C32.0737 28.6481 32.093 28.5627 32.093 28.4678C32.093 28.4203 32.0834 28.3824 32.0834 28.3444C32.0737 28.297 32.0641 28.2495 32.0448 28.2116C32.0255 28.1641 32.0063 28.1262 31.9773 28.0787L31.9002 27.9838L31.8906 27.9743C31.8231 27.9174 31.746 27.8605 31.6592 27.832C31.3989 27.7181 31.0904 27.7845 30.888 27.9743L30.8012 28.0787C30.7723 28.1167 30.753 28.1641 30.7337 28.2021C30.7144 28.2495 30.6952 28.2875 30.6952 28.3349C30.6855 28.3729 30.6855 28.4203 30.6855 28.4678C30.6855 28.5627 30.7048 28.6481 30.7434 28.7335C30.7916 28.9138 30.9362 29.0561 31.1097 29.113ZM36.759 8.46442C36.9132 8.33157 37 8.14178 37 7.94251V5.52275C37 5.43734 36.9807 5.36143 36.9518 5.28552V5.27603C36.9518 5.26654 36.9422 5.24756 36.9325 5.23807C36.9036 5.17164 36.8554 5.10522 36.7976 5.04828C36.7879 5.03879 36.7783 5.02931 36.7686 5.02931C36.7397 5.00084 36.7108 4.98186 36.6819 4.95339L29.3262 0.113871C29.2105 0.037957 29.0756 0 28.931 0H8.06905C7.92444 0 7.78947 0.037957 7.67379 0.113871L0.308494 4.95339C0.279573 4.97237 0.250651 5.00084 0.231371 5.01982L0.22173 5.02931C0.21209 5.03879 0.202449 5.03879 0.192809 5.04828C0.134966 5.10522 0.0964044 5.17164 0.0578426 5.23807C0.0482022 5.24756 0.0482022 5.26654 0.0385618 5.27603V5.28552C0.0192809 5.36143 0 5.44683 0 5.53224V7.952C0 8.15127 0.0867639 8.34106 0.241011 8.47391C0.375977 8.58778 0.559145 8.64471 0.732673 8.64471H5.83247L5.30224 10.125C5.13835 10.5805 5.47577 11.055 5.96743 11.055C6.26628 11.055 6.53622 10.8652 6.63262 10.59L7.33637 8.63522H29.6443L35.284 24.1502H1.716L4.13575 17.4792C4.29964 17.0237 3.96222 16.5493 3.47056 16.5493C3.1717 16.5493 2.90177 16.739 2.80537 17.0142L0.0385618 24.6151V24.6246C0.0289213 24.6626 0.0289213 24.7005 0.0192809 24.729C0.00964044 24.767 0 24.8049 0 24.8429V30.8875C0 32.6051 1.41714 34 3.16206 34H6.80615C7.19177 34 7.52918 33.7058 7.54846 33.3263C7.5581 32.9277 7.23997 32.6051 6.83507 32.6051H3.16206C2.19802 32.6051 1.41714 31.8365 1.41714 30.8875V25.5451H9.19698V28.4678C9.19698 29.5211 10.0646 30.3751 11.1347 30.3751H25.8557C26.9257 30.3751 27.7934 29.5211 27.7934 28.4678V25.5451H35.5732V30.8875C35.5732 31.8365 34.7923 32.6051 33.8283 32.6051H14.0654C13.6798 32.6051 13.3424 32.8993 13.3231 33.2788C13.3134 33.6774 13.6316 34 14.0365 34H33.8379C35.5829 34 37 32.6051 37 30.8875V24.8524V24.8334C36.9807 24.767 36.9711 24.71 36.9614 24.6436V24.6341L31.1579 8.64471H36.2577C36.4409 8.64471 36.624 8.58778 36.759 8.46442ZM26.3762 28.4773C26.3762 28.7619 26.1449 28.9897 25.8557 28.9897H11.1347C10.8455 28.9897 10.6141 28.7619 10.6141 28.4773V25.5546H26.3762V28.4773ZM8.28114 1.39492H28.7092L33.944 4.83003H3.04638L8.28114 1.39492ZM35.5829 7.24979H1.41714V6.22495H35.5829V7.24979ZM9.29338 15.885C9.43799 15.885 9.57296 15.8471 9.68864 15.7711L11.53 14.566C11.8481 14.3478 11.9349 13.9207 11.7228 13.5981C11.5107 13.285 11.0672 13.1901 10.7394 13.3988L8.90777 14.6135C8.64747 14.7843 8.53179 15.0974 8.61855 15.4011C8.71496 15.6857 8.98489 15.885 9.29338 15.885ZM16.2538 12.2032L8.28114 17.6405C8.02084 17.8113 7.9148 18.134 8.0112 18.4186C8.10761 18.7128 8.37754 18.9121 8.68603 18.9121C8.83064 18.9121 8.96561 18.8646 9.09093 18.7887L17.0636 13.3514C17.3817 13.1331 17.4685 12.6966 17.2371 12.3835C17.0154 12.0608 16.5816 11.9849 16.2538 12.2032ZM33.3366 28.9707C33.4041 29.0276 33.4812 29.0846 33.568 29.113C33.6548 29.151 33.7512 29.17 33.8379 29.17C33.9343 29.17 34.0211 29.151 34.1079 29.113C34.1946 29.0751 34.2718 29.0276 34.3489 28.9612C34.4067 28.8948 34.4549 28.8189 34.4935 28.7335C34.532 28.6481 34.5513 28.5627 34.5513 28.4678C34.5513 28.4203 34.5417 28.3824 34.5417 28.3444C34.532 28.297 34.5224 28.2495 34.5031 28.2116C34.4838 28.1641 34.4646 28.1262 34.4356 28.0882C34.4067 28.0502 34.3874 28.0218 34.3489 27.9838C34.2814 27.9174 34.2043 27.8699 34.1175 27.8415C33.8476 27.7276 33.5487 27.7845 33.3463 27.9838L33.2595 28.0882C33.2306 28.1262 33.2113 28.1736 33.192 28.2116C33.1727 28.259 33.1535 28.297 33.1535 28.3444C33.1438 28.3919 33.1438 28.4298 33.1438 28.4773C33.1438 28.5721 33.1631 28.6576 33.2017 28.743C33.2209 28.8284 33.2691 28.9043 33.3366 28.9707ZM3.9815 22.5844C4.23215 22.926 4.63705 23.1348 5.06123 23.1348H31.9388C32.3726 23.1348 32.7678 22.926 33.0185 22.5844C33.2692 22.2428 33.327 21.7968 33.1824 21.3983L29.2394 10.5331C29.0563 10.0207 28.555 9.66955 27.9958 9.66955H9.00417C8.44502 9.66955 7.94372 10.0207 7.76055 10.5331L3.81761 21.3983C3.67301 21.7968 3.73085 22.2333 3.9815 22.5844ZM9.07165 11.055H27.9284L31.8038 21.7399H5.1962L9.07165 11.055ZM3.77905 26.5699C3.04638 26.5699 2.45831 27.1583 2.45831 27.8699V29.0751C2.45831 29.7963 3.05602 30.3751 3.77905 30.3751H5.00339C5.73606 30.3751 6.32413 29.7868 6.32413 29.0751V27.8699C6.32413 27.1488 5.72642 26.5699 5.00339 26.5699H3.77905ZM3.87546 28.9802V27.9648H4.90698V28.9802H3.87546ZM12.976 13.4747H12.9857C13.217 13.4747 13.4388 13.3609 13.5737 13.1711C13.7087 12.9718 13.728 12.7346 13.6316 12.5163C13.5448 12.2981 13.352 12.1368 13.1206 12.0893C12.8893 12.0419 12.6483 12.1178 12.4747 12.2886C12.4169 12.355 12.359 12.4309 12.3301 12.5163C12.2337 12.7346 12.2626 12.9813 12.388 13.1711C12.5229 13.3609 12.735 13.4747 12.976 13.4747Z" fill="white"/>
</svg>
